<svg width="257" height="26" viewBox="0 0 257 26" fill="none" xmlns="http://www.w3.org/2000/svg">
<path d="M11.6598 24.707L3.45642 21.9822C3.65894 21.0739 4.064 18.9544 4.064 17.7433C4.064 16.2293 2.84876 15.3213 1.32962 12.2936C-0.189514 9.26582 0.686953 1.70103 8.31736 0.788503C15.9127 -0.119826 17.9397 6.86062 18.0398 7.14651C18.329 7.9733 18.0398 8.96302 19.2548 10.7796C21.4126 14.0059 20.1662 14.4127 19.5586 14.4127C18.9509 14.4127 18.4479 14.7495 18.6478 15.3213C18.9367 16.1479 18.6329 17.0561 18.0252 17.3589C17.7531 17.4945 18.5431 18.0623 18.3433 19.2569C18.0394 21.0735 15.305 20.7707 13.4827 20.4684C11.5056 20.1403 11.4572 23.0923 11.6598 24.707Z" stroke="white" stroke-width="1.41176" stroke-linecap="round" stroke-linejoin="round"/>
<path d="M6.21484 9.03414H9.97064M9.97064 9.03414H9.97652M9.97064 9.03414L9.97358 9.03708M9.97064 9.03414L6.9613 6.02245M9.97652 9.03414H13.7382M9.97652 9.03414V5.26953M9.97652 9.03414V9.04002M9.97652 9.03414L12.9859 6.02245M9.97652 9.03414L9.97358 9.03708M9.97652 9.04002V12.7987M9.97652 9.04002L12.98 12.0458M9.97652 9.04002L9.97358 9.03708M9.97358 9.03708L6.96718 12.0458" stroke="#11E59E" stroke-width="1.41176" stroke-linecap="round" stroke-linejoin="round"/>
<path d="M24.0039 9.65163V8.10547H32.1275V9.65163H28.9805V18.2873H27.1509V9.65163H24.0039Z" fill="white"/>
<path d="M32.821 18.2873V10.6509H34.5661V11.9237H34.6456C34.7848 11.4828 35.0234 11.1431 35.3615 10.9045C35.7029 10.6625 36.0923 10.5415 36.5298 10.5415C36.6293 10.5415 36.7403 10.5465 36.8629 10.5565C36.9889 10.5631 37.0933 10.5747 37.1761 10.5913V12.2468C37.0999 12.2203 36.9789 12.1971 36.8132 12.1772C36.6508 12.154 36.4934 12.1424 36.3409 12.1424C36.0128 12.1424 35.7178 12.2137 35.456 12.3562C35.1974 12.4954 34.9936 12.6893 34.8445 12.9379C34.6953 13.1864 34.6207 13.4731 34.6207 13.7979V18.2873H32.821Z" fill="white"/>
<path d="M43.239 15.0756V10.6509H45.0387V18.2873H43.2937V16.93H43.2141C43.0418 17.3576 42.7584 17.7073 42.364 17.979C41.9729 18.2508 41.4906 18.3867 40.9173 18.3867C40.4168 18.3867 39.9743 18.2757 39.5898 18.0536C39.2087 17.8282 38.9104 17.5018 38.695 17.0742C38.4795 16.6433 38.3718 16.123 38.3718 15.5131V10.6509H40.1715V15.2347C40.1715 15.7186 40.3041 16.1031 40.5692 16.3881C40.8344 16.6732 41.1824 16.8157 41.6133 16.8157C41.8784 16.8157 42.1353 16.7511 42.3839 16.6218C42.6325 16.4925 42.8363 16.3003 42.9954 16.0451C43.1578 15.7866 43.239 15.4634 43.239 15.0756Z" fill="white"/>
<path d="M50.2104 21.31C49.5641 21.31 49.0089 21.2222 48.5449 21.0465C48.0809 20.8742 47.708 20.6422 47.4263 20.3505C47.1446 20.0588 46.949 19.7357 46.8397 19.381L48.4604 18.9883C48.5333 19.1374 48.6394 19.2849 48.7786 19.4308C48.9178 19.5799 49.1051 19.7025 49.3404 19.7987C49.579 19.8981 49.879 19.9478 50.2402 19.9478C50.7507 19.9478 51.1732 19.8235 51.508 19.5749C51.8427 19.3297 52.0101 18.9253 52.0101 18.3619V16.9151H51.9206C51.8278 17.1007 51.6919 17.2913 51.513 17.4869C51.3373 17.6824 51.1036 17.8465 50.812 17.979C50.5236 18.1116 50.1607 18.1779 49.7232 18.1779C49.1365 18.1779 48.6046 18.0404 48.1273 17.7653C47.6533 17.4869 47.2755 17.0726 46.9938 16.5224C46.7154 15.9689 46.5762 15.2762 46.5762 14.4442C46.5762 13.6057 46.7154 12.8981 46.9938 12.3214C47.2755 11.7414 47.655 11.3022 48.1323 11.0039C48.6096 10.7023 49.1415 10.5515 49.7282 10.5515C50.1756 10.5515 50.5435 10.6277 50.8319 10.7802C51.1235 10.9293 51.3555 11.11 51.5279 11.3221C51.7002 11.5309 51.8311 11.7281 51.9206 11.9137H52.0201V10.6509H53.7949V18.4116C53.7949 19.0645 53.6391 19.6048 53.3276 20.0323C53.016 20.4599 52.5901 20.7797 52.0499 20.9918C51.5096 21.204 50.8965 21.31 50.2104 21.31ZM50.2253 16.766C50.6065 16.766 50.9313 16.6732 51.1998 16.4876C51.4682 16.302 51.6721 16.0352 51.8113 15.6871C51.9505 15.3391 52.0201 14.9215 52.0201 14.4343C52.0201 13.9537 51.9505 13.5328 51.8113 13.1715C51.6754 12.8103 51.4732 12.5302 51.2047 12.3313C50.9396 12.1291 50.6131 12.0281 50.2253 12.0281C49.8243 12.0281 49.4895 12.1325 49.2211 12.3413C48.9526 12.5501 48.7504 12.8368 48.6145 13.2013C48.4786 13.5626 48.4107 13.9736 48.4107 14.4343C48.4107 14.9016 48.4786 15.311 48.6145 15.6623C48.7537 16.0103 48.9576 16.2821 49.226 16.4776C49.4978 16.6699 49.8309 16.766 50.2253 16.766Z" fill="white"/>
<path d="M59.0201 18.4364C58.2544 18.4364 57.5932 18.2773 57.0364 17.9592C56.4829 17.6377 56.057 17.1836 55.7587 16.5969C55.4604 16.007 55.3113 15.3126 55.3113 14.5138C55.3113 13.7283 55.4604 13.0389 55.7587 12.4457C56.0603 11.8491 56.4812 11.3851 57.0215 11.0536C57.5617 10.7189 58.1964 10.5515 58.9256 10.5515C59.3962 10.5515 59.8404 10.6277 60.258 10.7802C60.6789 10.9293 61.0501 11.1613 61.3716 11.4762C61.6964 11.7911 61.9516 12.1921 62.1373 12.6793C62.3229 13.1632 62.4157 13.7399 62.4157 14.4094V14.9613H56.1564V13.7482H60.6905C60.6872 13.4035 60.6126 13.0969 60.4668 12.8285C60.321 12.5567 60.1171 12.3429 59.8553 12.1871C59.5968 12.0314 59.2952 11.9535 58.9505 11.9535C58.5826 11.9535 58.2594 12.043 57.981 12.2219C57.7026 12.3976 57.4855 12.6296 57.3297 12.918C57.1773 13.203 57.0994 13.5162 57.0961 13.8576V14.9165C57.0961 15.3607 57.1773 15.7418 57.3397 16.06C57.5021 16.3749 57.7291 16.6168 58.0208 16.7859C58.3124 16.9516 58.6538 17.0344 59.0449 17.0344C59.3068 17.0344 59.5437 16.998 59.7559 16.9251C59.968 16.8488 60.1519 16.7378 60.3077 16.592C60.4635 16.4461 60.5811 16.2655 60.6607 16.0501L62.3411 16.239C62.235 16.6831 62.0328 17.0709 61.7346 17.4023C61.4396 17.7305 61.0617 17.9857 60.601 18.168C60.1403 18.3469 59.6133 18.4364 59.0201 18.4364Z" fill="white"/>
<path d="M65.7379 13.8129V18.2873H63.9382V10.6509H65.6584V11.9485H65.7479C65.9235 11.521 66.2036 11.1812 66.5881 10.9293C66.9759 10.6774 67.4548 10.5515 68.0249 10.5515C68.5518 10.5515 69.0109 10.6642 69.402 10.8896C69.7964 11.1149 70.1013 11.4414 70.3168 11.869C70.5355 12.2965 70.6432 12.8152 70.6399 13.4251V18.2873H68.8402V13.7035C68.8402 13.1931 68.7076 12.7937 68.4425 12.5053C68.1806 12.217 67.8177 12.0728 67.3537 12.0728C67.0388 12.0728 66.7588 12.1424 66.5135 12.2816C66.2715 12.4175 66.081 12.6147 65.9418 12.8732C65.8059 13.1317 65.7379 13.445 65.7379 13.8129Z" fill="white"/>
<path d="M77.3292 18.2873H75.3604L78.945 8.10547H81.2219L84.8114 18.2873H82.8427L80.1232 10.1935H80.0437L77.3292 18.2873ZM77.3938 14.2951H82.7631V15.7766H77.3938V14.2951Z" fill="white"/>
<path d="M87.997 8.10547V18.2873H86.1525V8.10547H87.997Z" fill="white"/>
<path d="M100.552 11.207H99.4954C99.4329 10.9031 99.3235 10.636 99.1673 10.4059C99.0138 10.1758 98.8263 9.9826 98.6048 9.82635C98.386 9.66726 98.1431 9.54794 97.8761 9.46839C97.609 9.38885 97.3306 9.34908 97.0408 9.34908C96.5124 9.34908 96.0337 9.4826 95.6048 9.74964C95.1786 10.0167 94.8391 10.4102 94.5863 10.93C94.3363 11.4499 94.2113 12.0877 94.2113 12.8434C94.2113 13.5991 94.3363 14.2369 94.5863 14.7567C94.8391 15.2766 95.1786 15.6701 95.6048 15.9371C96.0337 16.2042 96.5124 16.3377 97.0408 16.3377C97.3306 16.3377 97.609 16.2979 97.8761 16.2184C98.1431 16.1388 98.386 16.021 98.6048 15.8647C98.8263 15.7056 99.0138 15.511 99.1673 15.2809C99.3235 15.0479 99.4329 14.7809 99.4954 14.4798H100.552C100.473 14.9258 100.328 15.3249 100.118 15.6772C99.9073 16.0295 99.646 16.3292 99.3335 16.5763C99.021 16.8207 98.6701 17.0067 98.2809 17.1346C97.8945 17.2624 97.4812 17.3263 97.0408 17.3263C96.2965 17.3263 95.6346 17.1445 95.055 16.7809C94.4755 16.4173 94.0195 15.9002 93.6871 15.2298C93.3548 14.5593 93.1886 13.7638 93.1886 12.8434C93.1886 11.9229 93.3548 11.1275 93.6871 10.457C94.0195 9.78658 94.4755 9.26953 95.055 8.90589C95.6346 8.54226 96.2965 8.36044 97.0408 8.36044C97.4812 8.36044 97.8945 8.42436 98.2809 8.5522C98.6701 8.68004 99.021 8.86754 99.3335 9.1147C99.646 9.35902 99.9073 9.65732 100.118 10.0096C100.328 10.359 100.473 10.7582 100.552 11.207ZM104.783 17.3434C104.192 17.3434 103.673 17.2028 103.227 16.9215C102.784 16.6403 102.438 16.2468 102.188 15.7411C101.94 15.2354 101.817 14.6445 101.817 13.9684C101.817 13.2866 101.94 12.6914 102.188 12.1829C102.438 11.6744 102.784 11.2795 103.227 10.9982C103.673 10.717 104.192 10.5763 104.783 10.5763C105.374 10.5763 105.891 10.717 106.334 10.9982C106.78 11.2795 107.126 11.6744 107.374 12.1829C107.624 12.6914 107.749 13.2866 107.749 13.9684C107.749 14.6445 107.624 15.2354 107.374 15.7411C107.126 16.2468 106.78 16.6403 106.334 16.9215C105.891 17.2028 105.374 17.3434 104.783 17.3434ZM104.783 16.44C105.232 16.44 105.601 16.3249 105.891 16.0948C106.18 15.8647 106.395 15.5621 106.534 15.1871C106.673 14.8121 106.743 14.4059 106.743 13.9684C106.743 13.5309 106.673 13.1232 106.534 12.7454C106.395 12.3675 106.18 12.0621 105.891 11.8292C105.601 11.5962 105.232 11.4798 104.783 11.4798C104.334 11.4798 103.964 11.5962 103.675 11.8292C103.385 12.0621 103.17 12.3675 103.031 12.7454C102.892 13.1232 102.822 13.5309 102.822 13.9684C102.822 14.4059 102.892 14.8121 103.031 15.1871C103.17 15.5621 103.385 15.8647 103.675 16.0948C103.964 16.3249 104.334 16.44 104.783 16.44ZM110.289 13.2695V17.207H109.284V10.6616H110.255V11.6843H110.341C110.494 11.3519 110.727 11.0849 111.039 10.8832C111.352 10.6786 111.755 10.5763 112.25 10.5763C112.693 10.5763 113.081 10.6673 113.413 10.8491C113.745 11.0281 114.004 11.3008 114.189 11.6673C114.373 12.0309 114.466 12.4911 114.466 13.0479V17.207H113.46V13.1161C113.46 12.6019 113.326 12.2013 113.059 11.9144C112.792 11.6246 112.426 11.4798 111.96 11.4798C111.639 11.4798 111.352 11.5494 111.099 11.6886C110.849 11.8278 110.652 12.0309 110.507 12.2979C110.362 12.565 110.289 12.8888 110.289 13.2695ZM121.421 10.6616L119.001 17.207H117.978L115.558 10.6616H116.648L118.455 15.8775H118.523L120.33 10.6616H121.421ZM125.259 17.3434C124.628 17.3434 124.084 17.2042 123.626 16.9258C123.172 16.6445 122.821 16.2525 122.574 15.7496C122.33 15.244 122.207 14.6559 122.207 13.9854C122.207 13.315 122.33 12.7241 122.574 12.2127C122.821 11.6985 123.165 11.2979 123.605 11.011C124.048 10.7212 124.565 10.5763 125.156 10.5763C125.497 10.5763 125.834 10.6332 126.166 10.7468C126.499 10.8604 126.801 11.0451 127.074 11.3008C127.347 11.5536 127.564 11.8888 127.726 12.3065C127.888 12.7241 127.969 13.2383 127.969 13.8491V14.2752H122.923V13.4059H126.946C126.946 13.0366 126.872 12.707 126.724 12.4173C126.58 12.1275 126.372 11.8988 126.102 11.7312C125.835 11.5636 125.52 11.4798 125.156 11.4798C124.756 11.4798 124.409 11.5792 124.116 11.7781C123.827 11.9741 123.604 12.2298 123.447 12.5451C123.291 12.8604 123.213 13.1985 123.213 13.5593V14.1388C123.213 14.6332 123.298 15.0522 123.469 15.396C123.642 15.7369 123.882 15.9968 124.189 16.1758C124.496 16.3519 124.852 16.44 125.259 16.44C125.523 16.44 125.761 16.4031 125.974 16.3292C126.19 16.2525 126.376 16.1388 126.533 15.9883C126.689 15.8349 126.81 15.6445 126.895 15.4173L127.866 15.69C127.764 16.0195 127.592 16.3093 127.351 16.5593C127.109 16.8065 126.811 16.9996 126.456 17.1388C126.101 17.2752 125.702 17.3434 125.259 17.3434ZM129.499 17.207V10.6616H130.47V11.6502H130.538C130.658 11.3263 130.874 11.0636 131.186 10.8619C131.499 10.6602 131.851 10.5593 132.243 10.5593C132.317 10.5593 132.409 10.5607 132.52 10.5636C132.631 10.5664 132.714 10.5707 132.771 10.5763V11.5991C132.737 11.5906 132.659 11.5778 132.537 11.5607C132.418 11.5408 132.291 11.5309 132.158 11.5309C131.839 11.5309 131.555 11.5977 131.305 11.7312C131.058 11.8619 130.862 12.0437 130.717 12.2766C130.575 12.5067 130.504 12.7695 130.504 13.065V17.207H129.499ZM138.6 12.1275L137.696 12.3832C137.64 12.2326 137.556 12.0863 137.445 11.9442C137.337 11.7994 137.189 11.68 137.002 11.5863C136.814 11.4925 136.574 11.4457 136.282 11.4457C135.881 11.4457 135.547 11.538 135.28 11.7227C135.016 11.9045 134.884 12.136 134.884 12.4173C134.884 12.6673 134.975 12.8647 135.157 13.0096C135.338 13.1545 135.623 13.2752 136.009 13.3718L136.98 13.6104C137.566 13.7525 138.002 13.9698 138.289 14.2624C138.576 14.5522 138.719 14.9258 138.719 15.3832C138.719 15.7582 138.611 16.0934 138.395 16.3888C138.182 16.6843 137.884 16.9173 137.5 17.0877C137.117 17.2582 136.671 17.3434 136.162 17.3434C135.495 17.3434 134.942 17.1985 134.505 16.9087C134.067 16.619 133.79 16.1957 133.674 15.6388L134.628 15.4002C134.719 15.7525 134.891 16.0167 135.144 16.1928C135.4 16.369 135.733 16.457 136.145 16.457C136.614 16.457 136.986 16.3576 137.262 16.1587C137.54 15.957 137.679 15.7156 137.679 15.4343C137.679 15.207 137.6 15.0167 137.441 14.8633C137.282 14.707 137.037 14.5906 136.708 14.5138L135.617 14.2582C135.017 14.1161 134.577 13.896 134.296 13.5977C134.017 13.2965 133.878 12.9201 133.878 12.4684C133.878 12.0991 133.982 11.7724 134.189 11.4883C134.4 11.2042 134.685 10.9812 135.046 10.8192C135.409 10.6573 135.821 10.5763 136.282 10.5763C136.929 10.5763 137.438 10.7184 137.807 11.0025C138.179 11.2866 138.444 11.6616 138.6 12.1275ZM142.159 17.3604C141.744 17.3604 141.368 17.2823 141.03 17.1261C140.692 16.967 140.423 16.7383 140.224 16.44C140.026 16.1388 139.926 15.7752 139.926 15.3491C139.926 14.9741 140 14.6701 140.148 14.4371C140.295 14.2013 140.493 14.0167 140.74 13.8832C140.987 13.7496 141.26 13.6502 141.558 13.5849C141.859 13.5167 142.162 13.4627 142.466 13.4229C142.864 13.3718 143.186 13.3335 143.433 13.3079C143.683 13.2795 143.865 13.2326 143.979 13.1673C144.095 13.1019 144.153 12.9883 144.153 12.8263V12.7923C144.153 12.3718 144.038 12.0451 143.808 11.8121C143.581 11.5792 143.236 11.4627 142.773 11.4627C142.293 11.4627 141.916 11.5678 141.643 11.7781C141.371 11.9883 141.179 12.2127 141.068 12.4513L140.114 12.1104C140.284 11.7127 140.511 11.4031 140.795 11.1815C141.082 10.957 141.395 10.8008 141.733 10.7127C142.074 10.6218 142.409 10.5763 142.739 10.5763C142.949 10.5763 143.19 10.6019 143.463 10.6531C143.739 10.7013 144.004 10.8022 144.26 10.9556C144.518 11.109 144.733 11.3406 144.903 11.6502C145.074 11.9599 145.159 12.3746 145.159 12.8945V17.207H144.153V16.3207H144.102C144.034 16.4627 143.92 16.6147 143.761 16.7766C143.602 16.9386 143.391 17.0763 143.126 17.19C142.862 17.3036 142.54 17.3604 142.159 17.3604ZM142.312 16.457C142.71 16.457 143.045 16.3789 143.318 16.2227C143.594 16.0664 143.801 15.8647 143.94 15.6175C144.082 15.3704 144.153 15.1104 144.153 14.8377V13.9173C144.111 13.9684 144.017 14.0153 143.872 14.0579C143.73 14.0977 143.565 14.1332 143.378 14.1644C143.193 14.1928 143.013 14.2184 142.837 14.2411C142.663 14.261 142.523 14.2781 142.415 14.2923C142.153 14.3263 141.909 14.3817 141.682 14.4585C141.457 14.5323 141.276 14.6445 141.136 14.7951C141 14.9428 140.932 15.1445 140.932 15.4002C140.932 15.7496 141.061 16.0138 141.32 16.1928C141.581 16.369 141.912 16.457 142.312 16.457ZM149.841 10.6616V11.5138H146.449V10.6616H149.841ZM147.438 9.09339H148.444V15.332C148.444 15.6161 148.485 15.8292 148.567 15.9712C148.652 16.1104 148.76 16.2042 148.891 16.2525C149.025 16.2979 149.165 16.3207 149.313 16.3207C149.424 16.3207 149.515 16.315 149.586 16.3036C149.657 16.2894 149.713 16.2781 149.756 16.2695L149.961 17.1729C149.892 17.1985 149.797 17.2241 149.675 17.2496C149.553 17.2781 149.398 17.2923 149.211 17.2923C148.926 17.2923 148.648 17.2312 148.375 17.109C148.105 16.9869 147.881 16.8008 147.702 16.5508C147.526 16.3008 147.438 15.9854 147.438 15.6048V9.09339ZM151.354 17.207V10.6616H152.36V17.207H151.354ZM151.865 9.57067C151.669 9.57067 151.5 9.50391 151.358 9.37038C151.219 9.23686 151.15 9.07635 151.15 8.88885C151.15 8.70135 151.219 8.54084 151.358 8.40732C151.5 8.27379 151.669 8.20703 151.865 8.20703C152.061 8.20703 152.229 8.27379 152.368 8.40732C152.51 8.54084 152.581 8.70135 152.581 8.88885C152.581 9.07635 152.51 9.23686 152.368 9.37038C152.229 9.50391 152.061 9.57067 151.865 9.57067ZM156.861 17.3434C156.27 17.3434 155.751 17.2028 155.305 16.9215C154.862 16.6403 154.516 16.2468 154.266 15.7411C154.018 15.2354 153.895 14.6445 153.895 13.9684C153.895 13.2866 154.018 12.6914 154.266 12.1829C154.516 11.6744 154.862 11.2795 155.305 10.9982C155.751 10.717 156.27 10.5763 156.861 10.5763C157.452 10.5763 157.969 10.717 158.412 10.9982C158.858 11.2795 159.205 11.6744 159.452 12.1829C159.702 12.6914 159.827 13.2866 159.827 13.9684C159.827 14.6445 159.702 15.2354 159.452 15.7411C159.205 16.2468 158.858 16.6403 158.412 16.9215C157.969 17.2028 157.452 17.3434 156.861 17.3434ZM156.861 16.44C157.31 16.44 157.679 16.3249 157.969 16.0948C158.259 15.8647 158.473 15.5621 158.612 15.1871C158.751 14.8121 158.821 14.4059 158.821 13.9684C158.821 13.5309 158.751 13.1232 158.612 12.7454C158.473 12.3675 158.259 12.0621 157.969 11.8292C157.679 11.5962 157.31 11.4798 156.861 11.4798C156.412 11.4798 156.043 11.5962 155.753 11.8292C155.463 12.0621 155.249 12.3675 155.109 12.7454C154.97 13.1232 154.901 13.5309 154.901 13.9684C154.901 14.4059 154.97 14.8121 155.109 15.1871C155.249 15.5621 155.463 15.8647 155.753 16.0948C156.043 16.3249 156.412 16.44 156.861 16.44ZM162.368 13.2695V17.207H161.362V10.6616H162.333V11.6843H162.419C162.572 11.3519 162.805 11.0849 163.118 10.8832C163.43 10.6786 163.833 10.5763 164.328 10.5763C164.771 10.5763 165.159 10.6673 165.491 10.8491C165.824 11.0281 166.082 11.3008 166.267 11.6673C166.451 12.0309 166.544 12.4911 166.544 13.0479V17.207H165.538V13.1161C165.538 12.6019 165.404 12.2013 165.137 11.9144C164.87 11.6246 164.504 11.4798 164.038 11.4798C163.717 11.4798 163.43 11.5494 163.177 11.6886C162.927 11.8278 162.73 12.0309 162.585 12.2979C162.44 12.565 162.368 12.8888 162.368 13.2695ZM170.308 17.3604C169.893 17.3604 169.516 17.2823 169.178 17.1261C168.84 16.967 168.572 16.7383 168.373 16.44C168.174 16.1388 168.075 15.7752 168.075 15.3491C168.075 14.9741 168.148 14.6701 168.296 14.4371C168.444 14.2013 168.641 14.0167 168.888 13.8832C169.136 13.7496 169.408 13.6502 169.707 13.5849C170.008 13.5167 170.31 13.4627 170.614 13.4229C171.012 13.3718 171.335 13.3335 171.582 13.3079C171.832 13.2795 172.013 13.2326 172.127 13.1673C172.244 13.1019 172.302 12.9883 172.302 12.8263V12.7923C172.302 12.3718 172.187 12.0451 171.957 11.8121C171.729 11.5792 171.384 11.4627 170.921 11.4627C170.441 11.4627 170.065 11.5678 169.792 11.7781C169.519 11.9883 169.327 12.2127 169.217 12.4513L168.262 12.1104C168.433 11.7127 168.66 11.4031 168.944 11.1815C169.231 10.957 169.543 10.8008 169.881 10.7127C170.222 10.6218 170.558 10.5763 170.887 10.5763C171.097 10.5763 171.339 10.6019 171.612 10.6531C171.887 10.7013 172.153 10.8022 172.408 10.9556C172.667 11.109 172.881 11.3406 173.052 11.6502C173.222 11.9599 173.308 12.3746 173.308 12.8945V17.207H172.302V16.3207H172.251C172.183 16.4627 172.069 16.6147 171.91 16.7766C171.751 16.9386 171.539 17.0763 171.275 17.19C171.011 17.3036 170.688 17.3604 170.308 17.3604ZM170.461 16.457C170.859 16.457 171.194 16.3789 171.467 16.2227C171.742 16.0664 171.95 15.8647 172.089 15.6175C172.231 15.3704 172.302 15.1104 172.302 14.8377V13.9173C172.259 13.9684 172.165 14.0153 172.021 14.0579C171.879 14.0977 171.714 14.1332 171.526 14.1644C171.342 14.1928 171.161 14.2184 170.985 14.2411C170.812 14.261 170.671 14.2781 170.563 14.2923C170.302 14.3263 170.058 14.3817 169.83 14.4585C169.606 14.5323 169.424 14.6445 169.285 14.7951C169.148 14.9428 169.08 15.1445 169.08 15.4002C169.08 15.7496 169.21 16.0138 169.468 16.1928C169.729 16.369 170.06 16.457 170.461 16.457ZM176.149 8.47976V17.207H175.143V8.47976H176.149ZM181.86 8.47976L184.451 15.8263H184.553L187.144 8.47976H188.252L185.048 17.207H183.957L180.752 8.47976H181.86ZM189.475 17.207V10.6616H190.481V17.207H189.475ZM189.987 9.57067C189.79 9.57067 189.621 9.50391 189.479 9.37038C189.34 9.23686 189.271 9.07635 189.271 8.88885C189.271 8.70135 189.34 8.54084 189.479 8.40732C189.621 8.27379 189.79 8.20703 189.987 8.20703C190.183 8.20703 190.35 8.27379 190.489 8.40732C190.631 8.54084 190.702 8.70135 190.702 8.88885C190.702 9.07635 190.631 9.23686 190.489 9.37038C190.35 9.50391 190.183 9.57067 189.987 9.57067ZM194.794 17.3434C194.249 17.3434 193.767 17.2056 193.35 16.93C192.932 16.6516 192.605 16.2596 192.37 15.7539C192.134 15.2454 192.016 14.6445 192.016 13.9513C192.016 13.2638 192.134 12.6673 192.37 12.1616C192.605 11.6559 192.934 11.2653 193.354 10.9897C193.775 10.7141 194.26 10.5763 194.811 10.5763C195.238 10.5763 195.574 10.6474 195.821 10.7894C196.071 10.9286 196.262 11.0877 196.392 11.2667C196.526 11.4428 196.63 11.5877 196.703 11.7013H196.789V8.47976H197.794V17.207H196.823V16.2013H196.703C196.63 16.3207 196.525 16.4712 196.388 16.6531C196.252 16.832 196.057 16.9925 195.804 17.1346C195.551 17.2738 195.215 17.3434 194.794 17.3434ZM194.931 16.44C195.334 16.44 195.675 16.3349 195.953 16.1246C196.232 15.9116 196.444 15.6175 196.588 15.2425C196.733 14.8647 196.806 14.4286 196.806 13.9343C196.806 13.4457 196.735 13.0181 196.593 12.6516C196.451 12.2823 196.24 11.9954 195.962 11.7908C195.684 11.5835 195.34 11.4798 194.931 11.4798C194.505 11.4798 194.15 11.5891 193.865 11.8079C193.584 12.0238 193.373 12.3178 193.23 12.69C193.091 13.0593 193.022 13.4741 193.022 13.9343C193.022 14.4002 193.093 14.8235 193.235 15.2042C193.38 15.582 193.593 15.8832 193.874 16.1076C194.158 16.3292 194.51 16.44 194.931 16.44ZM202.52 17.3434C201.89 17.3434 201.346 17.2042 200.888 16.9258C200.434 16.6445 200.083 16.2525 199.836 15.7496C199.591 15.244 199.469 14.6559 199.469 13.9854C199.469 13.315 199.591 12.7241 199.836 12.2127C200.083 11.6985 200.426 11.2979 200.867 11.011C201.31 10.7212 201.827 10.5763 202.418 10.5763C202.759 10.5763 203.096 10.6332 203.428 10.7468C203.76 10.8604 204.063 11.0451 204.336 11.3008C204.608 11.5536 204.826 11.8888 204.988 12.3065C205.15 12.7241 205.23 13.2383 205.23 13.8491V14.2752H200.185V13.4059H204.208C204.208 13.0366 204.134 12.707 203.986 12.4173C203.841 12.1275 203.634 11.8988 203.364 11.7312C203.097 11.5636 202.782 11.4798 202.418 11.4798C202.017 11.4798 201.671 11.5792 201.378 11.7781C201.088 11.9741 200.865 12.2298 200.709 12.5451C200.553 12.8604 200.475 13.1985 200.475 13.5593V14.1388C200.475 14.6332 200.56 15.0522 200.73 15.396C200.904 15.7369 201.144 15.9968 201.451 16.1758C201.757 16.3519 202.114 16.44 202.52 16.44C202.784 16.44 203.023 16.4031 203.236 16.3292C203.452 16.2525 203.638 16.1388 203.794 15.9883C203.951 15.8349 204.071 15.6445 204.157 15.4173L205.128 15.69C205.026 16.0195 204.854 16.3093 204.613 16.5593C204.371 16.8065 204.073 16.9996 203.718 17.1388C203.363 17.2752 202.963 17.3434 202.52 17.3434ZM209.419 17.3434C208.828 17.3434 208.31 17.2028 207.864 16.9215C207.421 16.6403 207.074 16.2468 206.824 15.7411C206.577 15.2354 206.453 14.6445 206.453 13.9684C206.453 13.2866 206.577 12.6914 206.824 12.1829C207.074 11.6744 207.421 11.2795 207.864 10.9982C208.31 10.717 208.828 10.5763 209.419 10.5763C210.01 10.5763 210.527 10.717 210.971 10.9982C211.417 11.2795 211.763 11.6744 212.01 12.1829C212.26 12.6914 212.385 13.2866 212.385 13.9684C212.385 14.6445 212.26 15.2354 212.01 15.7411C211.763 16.2468 211.417 16.6403 210.971 16.9215C210.527 17.2028 210.01 17.3434 209.419 17.3434ZM209.419 16.44C209.868 16.44 210.238 16.3249 210.527 16.0948C210.817 15.8647 211.032 15.5621 211.171 15.1871C211.31 14.8121 211.38 14.4059 211.38 13.9684C211.38 13.5309 211.31 13.1232 211.171 12.7454C211.032 12.3675 210.817 12.0621 210.527 11.8292C210.238 11.5962 209.868 11.4798 209.419 11.4798C208.971 11.4798 208.601 11.5962 208.311 11.8292C208.022 12.0621 207.807 12.3675 207.668 12.7454C207.529 13.1232 207.459 13.5309 207.459 13.9684C207.459 14.4059 207.529 14.8121 207.668 15.1871C207.807 15.5621 208.022 15.8647 208.311 16.0948C208.601 16.3249 208.971 16.44 209.419 16.44ZM217.79 17.207H216.682L219.886 8.47976H220.977L224.182 17.207H223.074L220.466 9.86044H220.398L217.79 17.207ZM218.199 13.7979H222.665V14.7354H218.199V13.7979ZM228.047 19.7979C227.561 19.7979 227.143 19.7354 226.794 19.6104C226.445 19.4883 226.153 19.3263 225.92 19.1246C225.69 18.9258 225.507 18.7127 225.371 18.4854L226.172 17.9229C226.263 18.0423 226.378 18.1786 226.517 18.332C226.656 18.4883 226.847 18.6232 227.088 18.7369C227.332 18.8533 227.652 18.9116 228.047 18.9116C228.575 18.9116 229.011 18.7837 229.355 18.5281C229.699 18.2724 229.871 17.8718 229.871 17.3263V15.9968H229.786C229.712 16.1161 229.607 16.2638 229.47 16.44C229.337 16.6133 229.143 16.7681 228.891 16.9045C228.641 17.038 228.303 17.1048 227.876 17.1048C227.348 17.1048 226.874 16.9798 226.453 16.7298C226.036 16.4798 225.705 16.1161 225.46 15.6388C225.219 15.1616 225.098 14.582 225.098 13.9002C225.098 13.2298 225.216 12.646 225.452 12.1488C225.688 11.6488 226.016 11.2624 226.436 10.9897C226.857 10.7141 227.342 10.5763 227.893 10.5763C228.32 10.5763 228.658 10.6474 228.908 10.7894C229.161 10.9286 229.354 11.0877 229.487 11.2667C229.624 11.4428 229.729 11.5877 229.803 11.7013H229.905V10.6616H230.876V17.3945C230.876 17.957 230.749 18.4144 230.493 18.7667C230.24 19.1218 229.899 19.3817 229.47 19.5465C229.044 19.7141 228.57 19.7979 228.047 19.7979ZM228.013 16.2013C228.416 16.2013 228.757 16.109 229.036 15.9244C229.314 15.7397 229.526 15.4741 229.67 15.1275C229.815 14.7809 229.888 14.3661 229.888 13.8832C229.888 13.4116 229.817 12.9954 229.675 12.6346C229.533 12.2738 229.322 11.9911 229.044 11.7866C228.766 11.582 228.422 11.4798 228.013 11.4798C227.587 11.4798 227.232 11.5877 226.947 11.8036C226.666 12.0195 226.455 12.3093 226.312 12.6729C226.173 13.0366 226.104 13.44 226.104 13.8832C226.104 14.3377 226.175 14.7397 226.317 15.0891C226.462 15.4357 226.675 15.7085 226.956 15.9073C227.24 16.1033 227.592 16.2013 228.013 16.2013ZM235.462 17.3434C234.831 17.3434 234.287 17.2042 233.83 16.9258C233.375 16.6445 233.024 16.2525 232.777 15.7496C232.533 15.244 232.411 14.6559 232.411 13.9854C232.411 13.315 232.533 12.7241 232.777 12.2127C233.024 11.6985 233.368 11.2979 233.808 11.011C234.251 10.7212 234.768 10.5763 235.359 10.5763C235.7 10.5763 236.037 10.6332 236.369 10.7468C236.702 10.8604 237.004 11.0451 237.277 11.3008C237.55 11.5536 237.767 11.8888 237.929 12.3065C238.091 12.7241 238.172 13.2383 238.172 13.8491V14.2752H233.126V13.4059H237.149C237.149 13.0366 237.075 12.707 236.928 12.4173C236.783 12.1275 236.575 11.8988 236.305 11.7312C236.038 11.5636 235.723 11.4798 235.359 11.4798C234.959 11.4798 234.612 11.5792 234.32 11.7781C234.03 11.9741 233.807 12.2298 233.651 12.5451C233.494 12.8604 233.416 13.1985 233.416 13.5593V14.1388C233.416 14.6332 233.501 15.0522 233.672 15.396C233.845 15.7369 234.085 15.9968 234.392 16.1758C234.699 16.3519 235.055 16.44 235.462 16.44C235.726 16.44 235.964 16.4031 236.178 16.3292C236.393 16.2525 236.58 16.1388 236.736 15.9883C236.892 15.8349 237.013 15.6445 237.098 15.4173L238.07 15.69C237.967 16.0195 237.795 16.3093 237.554 16.5593C237.313 16.8065 237.014 16.9996 236.659 17.1388C236.304 17.2752 235.905 17.3434 235.462 17.3434ZM240.707 13.2695V17.207H239.702V10.6616H240.673V11.6843H240.759C240.912 11.3519 241.145 11.0849 241.457 10.8832C241.77 10.6786 242.173 10.5763 242.668 10.5763C243.111 10.5763 243.499 10.6673 243.831 10.8491C244.163 11.0281 244.422 11.3008 244.607 11.6673C244.791 12.0309 244.884 12.4911 244.884 13.0479V17.207H243.878V13.1161C243.878 12.6019 243.744 12.2013 243.477 11.9144C243.21 11.6246 242.844 11.4798 242.378 11.4798C242.057 11.4798 241.77 11.5494 241.517 11.6886C241.267 11.8278 241.07 12.0309 240.925 12.2979C240.78 12.565 240.707 12.8888 240.707 13.2695ZM249.568 10.6616V11.5138H246.176V10.6616H249.568ZM247.164 9.09339H248.17V15.332C248.17 15.6161 248.211 15.8292 248.294 15.9712C248.379 16.1104 248.487 16.2042 248.618 16.2525C248.751 16.2979 248.892 16.3207 249.039 16.3207C249.15 16.3207 249.241 16.315 249.312 16.3036C249.383 16.2894 249.44 16.2781 249.483 16.2695L249.687 17.1729C249.619 17.1985 249.524 17.2241 249.402 17.2496C249.279 17.2781 249.125 17.2923 248.937 17.2923C248.653 17.2923 248.375 17.2312 248.102 17.109C247.832 16.9869 247.608 16.8008 247.429 16.5508C247.252 16.3008 247.164 15.9854 247.164 15.6048V9.09339ZM255.6 12.1275L254.696 12.3832C254.64 12.2326 254.556 12.0863 254.445 11.9442C254.337 11.7994 254.189 11.68 254.002 11.5863C253.814 11.4925 253.574 11.4457 253.282 11.4457C252.881 11.4457 252.547 11.538 252.28 11.7227C252.016 11.9045 251.884 12.136 251.884 12.4173C251.884 12.6673 251.975 12.8647 252.157 13.0096C252.338 13.1545 252.623 13.2752 253.009 13.3718L253.98 13.6104C254.566 13.7525 255.002 13.9698 255.289 14.2624C255.576 14.5522 255.719 14.9258 255.719 15.3832C255.719 15.7582 255.611 16.0934 255.395 16.3888C255.182 16.6843 254.884 16.9173 254.5 17.0877C254.117 17.2582 253.671 17.3434 253.162 17.3434C252.495 17.3434 251.942 17.1985 251.505 16.9087C251.067 16.619 250.79 16.1957 250.674 15.6388L251.628 15.4002C251.719 15.7525 251.891 16.0167 252.144 16.1928C252.4 16.369 252.733 16.457 253.145 16.457C253.614 16.457 253.986 16.3576 254.262 16.1587C254.54 15.957 254.679 15.7156 254.679 15.4343C254.679 15.207 254.6 15.0167 254.441 14.8633C254.282 14.707 254.037 14.5906 253.708 14.5138L252.617 14.2582C252.017 14.1161 251.577 13.896 251.296 13.5977C251.017 13.2965 250.878 12.9201 250.878 12.4684C250.878 12.0991 250.982 11.7724 251.189 11.4883C251.4 11.2042 251.685 10.9812 252.046 10.8192C252.409 10.6573 252.821 10.5763 253.282 10.5763C253.929 10.5763 254.438 10.7184 254.807 11.0025C255.179 11.2866 255.444 11.6616 255.6 12.1275Z" fill="#969696"/>
</svg>
