<svg width="162" height="26" viewBox="0 0 162 26" fill="none" xmlns="http://www.w3.org/2000/svg">
<path d="M11.6598 24.707L3.45642 21.9822C3.65894 21.0739 4.064 18.9544 4.064 17.7433C4.064 16.2293 2.84876 15.3213 1.32962 12.2936C-0.189514 9.26582 0.686953 1.70103 8.31736 0.788503C15.9127 -0.119826 17.9397 6.86062 18.0398 7.14651C18.329 7.9733 18.0398 8.96302 19.2548 10.7796C21.4126 14.0059 20.1662 14.4127 19.5586 14.4127C18.9509 14.4127 18.4479 14.7495 18.6478 15.3213C18.9367 16.1479 18.6329 17.0561 18.0252 17.3589C17.7531 17.4945 18.5431 18.0623 18.3433 19.2569C18.0394 21.0735 15.305 20.7707 13.4827 20.4684C11.5056 20.1403 11.4572 23.0923 11.6598 24.707Z" stroke="black" stroke-width="1.41176" stroke-linecap="round" stroke-linejoin="round"/>
<path d="M6.21484 9.03414H9.97064M9.97064 9.03414H9.97652M9.97064 9.03414L9.97358 9.03708M9.97064 9.03414L6.9613 6.02245M9.97652 9.03414H13.7382M9.97652 9.03414V5.26953M9.97652 9.03414V9.04002M9.97652 9.03414L12.9859 6.02245M9.97652 9.03414L9.97358 9.03708M9.97652 9.04002V12.7987M9.97652 9.04002L12.98 12.0458M9.97652 9.04002L9.97358 9.03708M9.97358 9.03708L6.96718 12.0458" stroke="#11E59E" stroke-width="1.41176" stroke-linecap="round" stroke-linejoin="round"/>
<path d="M24.0039 9.65163V8.10547H32.1275V9.65163H28.9805V18.2873H27.1509V9.65163H24.0039Z" fill="black"/>
<path d="M32.821 18.2873V10.6509H34.5661V11.9237H34.6456C34.7848 11.4828 35.0234 11.1431 35.3615 10.9045C35.7029 10.6625 36.0923 10.5415 36.5298 10.5415C36.6293 10.5415 36.7403 10.5465 36.8629 10.5565C36.9889 10.5631 37.0933 10.5747 37.1761 10.5913V12.2468C37.0999 12.2203 36.9789 12.1971 36.8132 12.1772C36.6508 12.154 36.4934 12.1424 36.3409 12.1424C36.0128 12.1424 35.7178 12.2137 35.456 12.3562C35.1974 12.4954 34.9936 12.6893 34.8445 12.9379C34.6953 13.1864 34.6207 13.4731 34.6207 13.7979V18.2873H32.821Z" fill="black"/>
<path d="M43.239 15.0756V10.6509H45.0387V18.2873H43.2937V16.93H43.2141C43.0418 17.3576 42.7584 17.7073 42.364 17.979C41.9729 18.2508 41.4906 18.3867 40.9173 18.3867C40.4168 18.3867 39.9743 18.2757 39.5898 18.0536C39.2087 17.8282 38.9104 17.5018 38.695 17.0742C38.4795 16.6433 38.3718 16.123 38.3718 15.5131V10.6509H40.1715V15.2347C40.1715 15.7186 40.3041 16.1031 40.5692 16.3881C40.8344 16.6732 41.1824 16.8157 41.6133 16.8157C41.8784 16.8157 42.1353 16.7511 42.3839 16.6218C42.6325 16.4925 42.8363 16.3003 42.9954 16.0451C43.1578 15.7866 43.239 15.4634 43.239 15.0756Z" fill="black"/>
<path d="M50.2104 21.31C49.5641 21.31 49.0089 21.2222 48.5449 21.0465C48.0809 20.8742 47.708 20.6422 47.4263 20.3505C47.1446 20.0588 46.949 19.7357 46.8397 19.381L48.4604 18.9883C48.5333 19.1374 48.6394 19.2849 48.7786 19.4308C48.9178 19.5799 49.1051 19.7025 49.3404 19.7987C49.579 19.8981 49.879 19.9478 50.2402 19.9478C50.7507 19.9478 51.1732 19.8235 51.508 19.5749C51.8427 19.3297 52.0101 18.9253 52.0101 18.3619V16.9151H51.9206C51.8278 17.1007 51.6919 17.2913 51.513 17.4869C51.3373 17.6824 51.1036 17.8465 50.812 17.979C50.5236 18.1116 50.1607 18.1779 49.7232 18.1779C49.1365 18.1779 48.6046 18.0404 48.1273 17.7653C47.6533 17.4869 47.2755 17.0726 46.9938 16.5224C46.7154 15.9689 46.5762 15.2762 46.5762 14.4442C46.5762 13.6057 46.7154 12.8981 46.9938 12.3214C47.2755 11.7414 47.655 11.3022 48.1323 11.0039C48.6096 10.7023 49.1415 10.5515 49.7282 10.5515C50.1756 10.5515 50.5435 10.6277 50.8319 10.7802C51.1235 10.9293 51.3555 11.11 51.5279 11.3221C51.7002 11.5309 51.8311 11.7281 51.9206 11.9137H52.0201V10.6509H53.7949V18.4116C53.7949 19.0645 53.6391 19.6048 53.3276 20.0323C53.016 20.4599 52.5901 20.7797 52.0499 20.9918C51.5096 21.204 50.8965 21.31 50.2104 21.31ZM50.2253 16.766C50.6065 16.766 50.9313 16.6732 51.1998 16.4876C51.4682 16.302 51.6721 16.0352 51.8113 15.6871C51.9505 15.3391 52.0201 14.9215 52.0201 14.4343C52.0201 13.9537 51.9505 13.5328 51.8113 13.1715C51.6754 12.8103 51.4732 12.5302 51.2047 12.3313C50.9396 12.1291 50.6131 12.0281 50.2253 12.0281C49.8243 12.0281 49.4895 12.1325 49.2211 12.3413C48.9526 12.5501 48.7504 12.8368 48.6145 13.2013C48.4786 13.5626 48.4107 13.9736 48.4107 14.4343C48.4107 14.9016 48.4786 15.311 48.6145 15.6623C48.7537 16.0103 48.9576 16.2821 49.226 16.4776C49.4978 16.6699 49.8309 16.766 50.2253 16.766Z" fill="black"/>
<path d="M59.0201 18.4364C58.2544 18.4364 57.5932 18.2773 57.0364 17.9592C56.4829 17.6377 56.057 17.1836 55.7587 16.5969C55.4604 16.007 55.3113 15.3126 55.3113 14.5138C55.3113 13.7283 55.4604 13.0389 55.7587 12.4457C56.0603 11.8491 56.4812 11.3851 57.0215 11.0536C57.5617 10.7189 58.1964 10.5515 58.9256 10.5515C59.3962 10.5515 59.8404 10.6277 60.258 10.7802C60.6789 10.9293 61.0501 11.1613 61.3716 11.4762C61.6964 11.7911 61.9516 12.1921 62.1373 12.6793C62.3229 13.1632 62.4157 13.7399 62.4157 14.4094V14.9613H56.1564V13.7482H60.6905C60.6872 13.4035 60.6126 13.0969 60.4668 12.8285C60.321 12.5567 60.1171 12.3429 59.8553 12.1871C59.5968 12.0314 59.2952 11.9535 58.9505 11.9535C58.5826 11.9535 58.2594 12.043 57.981 12.2219C57.7026 12.3976 57.4855 12.6296 57.3297 12.918C57.1773 13.203 57.0994 13.5162 57.0961 13.8576V14.9165C57.0961 15.3607 57.1773 15.7418 57.3397 16.06C57.5021 16.3749 57.7291 16.6168 58.0208 16.7859C58.3124 16.9516 58.6538 17.0344 59.0449 17.0344C59.3068 17.0344 59.5437 16.998 59.7559 16.9251C59.968 16.8488 60.1519 16.7378 60.3077 16.592C60.4635 16.4461 60.5811 16.2655 60.6607 16.0501L62.3411 16.239C62.235 16.6831 62.0328 17.0709 61.7346 17.4023C61.4396 17.7305 61.0617 17.9857 60.601 18.168C60.1403 18.3469 59.6133 18.4364 59.0201 18.4364Z" fill="black"/>
<path d="M65.7379 13.8129V18.2873H63.9382V10.6509H65.6584V11.9485H65.7479C65.9235 11.521 66.2036 11.1812 66.5881 10.9293C66.9759 10.6774 67.4548 10.5515 68.0249 10.5515C68.5518 10.5515 69.0109 10.6642 69.402 10.8896C69.7964 11.1149 70.1013 11.4414 70.3168 11.869C70.5355 12.2965 70.6432 12.8152 70.6399 13.4251V18.2873H68.8402V13.7035C68.8402 13.1931 68.7076 12.7937 68.4425 12.5053C68.1806 12.217 67.8177 12.0728 67.3537 12.0728C67.0388 12.0728 66.7588 12.1424 66.5135 12.2816C66.2715 12.4175 66.081 12.6147 65.9418 12.8732C65.8059 13.1317 65.7379 13.445 65.7379 13.8129Z" fill="black"/>
<path d="M77.3292 18.2873H75.3604L78.945 8.10547H81.2219L84.8114 18.2873H82.8427L80.1232 10.1935H80.0437L77.3292 18.2873ZM77.3938 14.2951H82.7631V15.7766H77.3938V14.2951Z" fill="black"/>
<path d="M87.997 8.10547V18.2873H86.1525V8.10547H87.997Z" fill="black"/>
</svg>
