<svg width="138" height="44" viewBox="0 0 138 44" fill="none" xmlns="http://www.w3.org/2000/svg">
<path fill-rule="evenodd" clip-rule="evenodd" d="M6.37955 8.76918C1.70026 15.3037 2.23291 21.8221 5.32441 27.4396C8.07584 32.4393 12.8553 36.6931 17.7736 39.3957V34.9693H32.5985C34.3216 34.9693 34.9675 34.6538 35.1648 34.5043C35.266 34.4276 35.2893 34.3795 35.2893 34.2162V26.6753C36.7552 25.0439 38.6052 23.3455 39.1108 21.143L31.8121 9.59384C31.7736 9.53291 31.7398 9.46924 31.711 9.40338C30.2338 6.02255 25.9365 3.42015 20.7746 2.9449C15.7029 2.47796 10.1533 4.1179 6.37955 8.76918ZM38.2242 27.7437V34.2162C38.2242 34.9279 38.0165 35.9736 36.9626 36.772C36.0049 37.4976 34.5716 37.8383 32.5985 37.8383H20.7085V44L18.6197 43.0456C12.5424 40.2689 6.23219 35.1449 2.73978 28.7989C-0.796345 22.3734 -1.44014 14.6581 4.00172 7.08692L4.02519 7.05427L4.05049 7.02294C8.5427 1.45855 15.1498 -0.454663 21.0498 0.0885379C26.8281 0.620542 32.2887 3.5624 34.3646 8.17405L41.9297 20.1448L41.9853 20.3553C42.6682 22.9421 39.7415 25.9692 38.2242 27.7437Z" fill="white"/>
<path d="M18.2021 14.2562C17.9 13.7474 17.231 13.573 16.7078 13.8668C16.1845 14.1606 16.0053 14.8113 16.3073 15.3202L18.3136 18.6996H14.301C13.6969 18.6996 13.2071 19.176 13.2071 19.7636C13.2071 20.3512 13.6969 20.8275 14.301 20.8275H18.3136L16.3073 24.2069C16.0053 24.7158 16.1845 25.3665 16.7078 25.6603C17.231 25.9541 17.9 25.7797 18.2021 25.2709L20.2084 21.8914L22.2148 25.2709C22.5169 25.7797 23.1859 25.9541 23.7091 25.6603C24.2324 25.3665 24.4116 24.7158 24.1095 24.2069L22.1033 20.8275H26.1159C26.72 20.8275 27.2098 20.3512 27.2098 19.7636C27.2098 19.176 26.72 18.6996 26.1159 18.6996H22.1033L24.1095 15.3202C24.4116 14.8113 24.2324 14.1606 23.7091 13.8668C23.1859 13.573 22.5169 13.7474 22.2148 14.2562L20.2084 17.6358L18.2021 14.2562Z" fill="white"/>
<path fill-rule="evenodd" clip-rule="evenodd" d="M5.32441 27.4396C2.23291 21.8221 1.70026 15.3037 6.37955 8.76918C10.1533 4.1179 15.7029 2.47796 20.7746 2.9449C25.9365 3.42015 30.2338 6.02255 31.711 9.40338C31.7398 9.46924 31.7736 9.53291 31.8121 9.59384L39.1108 21.143C38.6052 23.3455 36.7552 25.0439 35.2893 26.6753V34.2162C35.2893 34.3795 35.266 34.4276 35.1648 34.5043C34.9675 34.6538 34.3216 34.9693 32.5985 34.9693H17.7736V39.3957C12.8553 36.6931 8.07584 32.4393 5.32441 27.4396ZM16.7078 13.8668C17.231 13.573 17.9 13.7474 18.2021 14.2562L20.2084 17.6358L22.2148 14.2562C22.5169 13.7474 23.1859 13.573 23.7091 13.8668C24.2324 14.1606 24.4116 14.8113 24.1095 15.3202L22.1033 18.6996H26.1159C26.72 18.6996 27.2098 19.176 27.2098 19.7636C27.2098 20.3512 26.72 20.8275 26.1159 20.8275H22.1033L24.1095 24.2069C24.4116 24.7158 24.2324 25.3665 23.7091 25.6603C23.1859 25.9541 22.5169 25.7797 22.2148 25.2709L20.2084 21.8914L18.2021 25.2709C17.9 25.7797 17.231 25.9541 16.7078 25.6603C16.1845 25.3665 16.0053 24.7158 16.3073 24.2069L18.3136 20.8275H14.301C13.6969 20.8275 13.2071 20.3512 13.2071 19.7636C13.2071 19.176 13.6969 18.6996 14.301 18.6996H18.3136L16.3073 15.3202C16.0053 14.8113 16.1845 14.1606 16.7078 13.8668Z" fill="url(#paint0_linear_7444_78759)"/>
<path d="M134.407 29.2528V18.818H137.301V29.2528H134.407ZM135.861 17.4729C135.431 17.4729 135.062 17.3302 134.754 17.0449C134.45 16.7551 134.299 16.4086 134.299 16.0055C134.299 15.607 134.45 15.265 134.754 14.9797C135.062 14.6898 135.431 14.5449 135.861 14.5449C136.291 14.5449 136.658 14.6898 136.962 14.9797C137.27 15.265 137.424 15.607 137.424 16.0055C137.424 16.4086 137.27 16.7551 136.962 17.0449C136.658 17.3302 136.291 17.4729 135.861 17.4729Z" fill="white"/>
<path d="M126.286 29.4498C125.62 29.4498 125.027 29.3343 124.506 29.1033C123.985 28.8678 123.573 28.5214 123.269 28.0639C122.971 27.602 122.821 27.0268 122.821 26.3384C122.821 25.7587 122.928 25.2718 123.14 24.8778C123.353 24.4838 123.643 24.1668 124.01 23.9267C124.377 23.6867 124.793 23.5055 125.26 23.3832C125.731 23.261 126.225 23.1749 126.741 23.1251C127.348 23.0617 127.837 23.0028 128.208 22.9485C128.58 22.8896 128.849 22.8035 129.017 22.6903C129.184 22.5771 129.268 22.4095 129.268 22.1876V22.1468C129.268 21.7166 129.132 21.3837 128.86 21.1482C128.593 20.9127 128.213 20.7949 127.719 20.7949C127.198 20.7949 126.784 20.9104 126.476 21.1414C126.168 21.3678 125.964 21.6532 125.865 21.9974L123.188 21.78C123.324 21.1459 123.591 20.5979 123.99 20.136C124.388 19.6695 124.902 19.3117 125.532 19.0626C126.166 18.809 126.899 18.6822 127.733 18.6822C128.312 18.6822 128.867 18.7501 129.397 18.886C129.932 19.0218 130.405 19.2324 130.817 19.5177C131.234 19.8031 131.562 20.1699 131.802 20.6183C132.042 21.0621 132.162 21.5943 132.162 22.2148V29.2528H129.418V27.8058H129.336C129.168 28.1319 128.944 28.4195 128.663 28.6686C128.383 28.9131 128.045 29.1056 127.651 29.246C127.257 29.3819 126.802 29.4498 126.286 29.4498ZM127.115 27.4525C127.54 27.4525 127.916 27.3687 128.242 27.2012C128.568 27.0291 128.824 26.7981 129.01 26.5082C129.196 26.2184 129.288 25.89 129.288 25.5232V24.4158C129.198 24.4747 129.073 24.5291 128.915 24.5789C128.761 24.6242 128.586 24.6672 128.392 24.708C128.197 24.7442 128.002 24.7782 127.807 24.8099C127.613 24.837 127.436 24.8619 127.278 24.8846C126.938 24.9344 126.641 25.0137 126.388 25.1224C126.134 25.2311 125.937 25.3783 125.797 25.5639C125.656 25.7451 125.586 25.9716 125.586 26.2433C125.586 26.6373 125.729 26.9385 126.014 27.1468C126.304 27.3506 126.671 27.4525 127.115 27.4525Z" fill="white"/>
<path d="M119.304 29.4294C118.855 29.4294 118.47 29.2709 118.149 28.9539C117.832 28.6323 117.673 28.2474 117.673 27.799C117.673 27.3552 117.832 26.9747 118.149 26.6577C118.47 26.3407 118.855 26.1821 119.304 26.1821C119.739 26.1821 120.119 26.3407 120.445 26.6577C120.771 26.9747 120.934 27.3552 120.934 27.799C120.934 28.0979 120.857 28.3719 120.703 28.621C120.554 28.8656 120.357 29.0626 120.112 29.212C119.868 29.357 119.598 29.4294 119.304 29.4294Z" fill="white"/>
<path d="M108.606 23.2202V29.2528H105.712V18.818H108.47V20.6591H108.592C108.823 20.0522 109.21 19.5721 109.754 19.2188C110.297 18.861 110.956 18.6822 111.731 18.6822C112.455 18.6822 113.087 18.8407 113.626 19.1577C114.165 19.4747 114.584 19.9276 114.883 20.5164C115.182 21.1006 115.331 21.7981 115.331 22.6088V29.2528H112.437V23.1251C112.442 22.4865 112.279 21.9883 111.948 21.6305C111.618 21.2682 111.162 21.087 110.583 21.087C110.193 21.087 109.849 21.1708 109.55 21.3384C109.256 21.506 109.025 21.7505 108.857 22.0721C108.694 22.3891 108.61 22.7718 108.606 23.2202Z" fill="white"/>
<path d="M99.0337 29.4566C97.9604 29.4566 97.0364 29.2392 96.262 28.8044C95.4921 28.3651 94.8988 27.7446 94.4821 26.943C94.0654 26.1369 93.8571 25.1835 93.8571 24.083C93.8571 23.0096 94.0654 22.0676 94.4821 21.2569C94.8988 20.4462 95.4853 19.8144 96.2416 19.3615C97.0025 18.9086 97.8947 18.6822 98.9182 18.6822C99.6066 18.6822 100.247 18.7931 100.841 19.015C101.439 19.2324 101.959 19.5608 102.403 20.0001C102.852 20.4394 103.2 20.9919 103.449 21.6577C103.699 22.3189 103.823 23.0934 103.823 23.9811V24.7759H95.012V22.9824H101.099C101.099 22.5658 101.008 22.1966 100.827 21.8751C100.646 21.5535 100.395 21.3022 100.073 21.121C99.7561 20.9353 99.387 20.8425 98.9658 20.8425C98.5265 20.8425 98.137 20.9444 97.7973 21.1482C97.4622 21.3475 97.1995 21.6169 97.0093 21.9566C96.819 22.2918 96.7217 22.6654 96.7171 23.0775V24.7827C96.7171 25.299 96.8122 25.7451 97.0025 26.121C97.1972 26.4969 97.4712 26.7868 97.8245 26.9906C98.1777 27.1944 98.5967 27.2963 99.0813 27.2963C99.4028 27.2963 99.6972 27.251 99.9644 27.1604C100.232 27.0698 100.46 26.934 100.651 26.7528C100.841 26.5716 100.986 26.3497 101.085 26.087L103.762 26.2637C103.626 26.9068 103.348 27.4684 102.926 27.9485C102.51 28.424 101.971 28.7954 101.31 29.0626C100.653 29.3253 99.8942 29.4566 99.0337 29.4566Z" fill="white"/>
<path d="M89.0048 19.837C88.9097 19.5064 88.7761 19.2143 88.604 18.9607C88.4319 18.7025 88.2213 18.4851 87.9722 18.3085C87.7277 18.1273 87.4469 17.9892 87.1298 17.8941C86.8173 17.799 86.4709 17.7514 86.0904 17.7514C85.3794 17.7514 84.7544 17.9281 84.2154 18.2813C83.681 18.6346 83.2644 19.1486 82.9654 19.8235C82.6665 20.4937 82.5171 21.3135 82.5171 22.2827C82.5171 23.2519 82.6643 24.0762 82.9586 24.7555C83.253 25.4349 83.6697 25.9534 84.2086 26.3112C84.7476 26.6645 85.3839 26.8411 86.1176 26.8411C86.7834 26.8411 87.3518 26.7234 87.8228 26.4879C88.2983 26.2478 88.6606 25.9104 88.9097 25.4756C89.1634 25.0408 89.2902 24.5268 89.2902 23.9335L89.888 24.0218H86.301V21.8072H92.1231V23.5599C92.1231 24.7827 91.8649 25.8334 91.3486 26.712C90.8323 27.5861 90.1212 28.261 89.2154 28.7365C88.3096 29.2075 87.2725 29.443 86.104 29.443C84.7997 29.443 83.6538 29.1554 82.6665 28.5802C81.6792 28.0005 80.9093 27.1785 80.3567 26.1142C79.8087 25.0454 79.5347 23.7773 79.5347 22.3099C79.5347 21.1821 79.6978 20.1767 80.0239 19.2936C80.3545 18.4059 80.8164 17.6541 81.4097 17.0381C82.003 16.4222 82.6937 15.9534 83.4817 15.6319C84.2698 15.3103 85.1235 15.1495 86.0429 15.1495C86.8309 15.1495 87.5646 15.265 88.244 15.496C88.9233 15.7225 89.5257 16.044 90.051 16.4607C90.5809 16.8773 91.0135 17.3733 91.3486 17.9485C91.6837 18.5191 91.8989 19.1486 91.994 19.837H89.0048Z" fill="white"/>
<path d="M74.516 24.8099V18.818H77.4101V29.2528H74.6315V27.3574H74.5228C74.2873 27.9688 73.8956 28.4602 73.3476 28.8316C72.8041 29.203 72.1406 29.3887 71.3571 29.3887C70.6596 29.3887 70.0459 29.2302 69.516 28.9131C68.9862 28.5961 68.5718 28.1455 68.2728 27.5612C67.9785 26.977 67.829 26.2773 67.8245 25.462V18.818H70.7185V24.9457C70.723 25.5617 70.8883 26.0485 71.2144 26.4063C71.5405 26.7641 71.9776 26.943 72.5256 26.943C72.8743 26.943 73.2004 26.8638 73.5038 26.7052C73.8073 26.5422 74.0518 26.3022 74.2375 25.9851C74.4277 25.6681 74.5206 25.2764 74.516 24.8099Z" fill="white"/>
<path d="M59.9967 29.2528V18.818H62.8024V20.6387H62.9111C63.1013 19.991 63.4206 19.5019 63.869 19.1713C64.3173 18.8361 64.8336 18.6686 65.4179 18.6686C65.5628 18.6686 65.7191 18.6776 65.8866 18.6957C66.0542 18.7139 66.2014 18.7388 66.3282 18.7705V21.3384C66.1923 21.2976 66.0044 21.2614 65.7644 21.2297C65.5243 21.198 65.3047 21.1821 65.1054 21.1821C64.6797 21.1821 64.2992 21.275 63.9641 21.4607C63.6335 21.6418 63.3708 21.8955 63.176 22.2216C62.9858 22.5476 62.8907 22.9235 62.8907 23.3493V29.2528H59.9967Z" fill="white"/>
<path d="M47.8262 17.765V15.3398H59.2528V17.765H54.9933V29.2528H52.0857V17.765H47.8262Z" fill="white"/>
<defs>
<linearGradient id="paint0_linear_7444_78759" x1="34.8766" y1="33.1" x2="16.8418" y2="3.57179" gradientUnits="userSpaceOnUse">
<stop offset="0.02326" stop-color="#666666"/>
<stop offset="1"/>
</linearGradient>
</defs>
</svg>
