<svg width="50" height="50" viewBox="0 0 50 50" fill="none" xmlns="http://www.w3.org/2000/svg">
<rect width="50" height="50" rx="8" fill="transparent"/>
<path d="M26.2675 44L13.3345 39.6856C13.6538 38.2475 14.2924 34.8917 14.2924 32.9741C14.2924 30.577 12.3765 29.1393 9.98155 24.3454C7.58655 19.5514 8.96835 7.57384 20.9981 6.129C32.9724 4.69081 36.1682 15.7432 36.3259 16.1958C36.7819 17.5049 36.3259 19.072 38.2414 21.9482C41.6434 27.0565 39.6784 27.7007 38.7204 27.7007C37.7624 27.7007 36.9694 28.2339 37.2845 29.1393C37.7399 30.448 37.2609 31.8861 36.3029 32.3655C35.874 32.5801 37.1194 33.4792 36.8044 35.3706C36.3254 38.2469 32.0144 37.7675 29.1415 37.2888C26.0245 36.7694 25.9482 41.4433 26.2675 44Z" stroke="white" stroke-width="1.52" stroke-linecap="round" stroke-linejoin="round"/>
<path d="M17.3601 19.1531H22.1426M22.1426 19.1531H22.1501M22.1426 19.1531L22.1464 19.1568M22.1426 19.1531L18.3106 15.3181M22.1501 19.1531H26.9401M22.1501 19.1531V14.3594M22.1501 19.1531V19.1606M22.1501 19.1531L25.9821 15.3181M22.1501 19.1531L22.1464 19.1568M22.1501 19.1606V23.9468M22.1501 19.1606L25.9746 22.9881M22.1501 19.1606L22.1464 19.1568M22.1464 19.1568L18.3181 22.9881" stroke="#11E59E" stroke-width="1.52" stroke-linecap="round" stroke-linejoin="round"/>
</svg>
