<svg xmlns="http://www.w3.org/2000/svg" width="43" height="52" viewBox="0 0 43 52" fill="none">
<path d="M23.7204 51L6.70334 45.3232C7.12346 43.4309 7.9637 39.0154 7.9637 36.4922C7.9637 33.3381 5.44281 31.4464 2.29151 25.1386C-0.859798 18.8308 0.958349 3.07084 16.7869 1.16973C32.5426 -0.722619 36.7476 13.82 36.9551 14.4156C37.5552 16.1381 36.9551 18.2 39.4755 21.9845C43.9518 28.706 41.3663 29.5535 40.1057 29.5535C38.8452 29.5535 37.8018 30.2551 38.2164 31.4464C38.8157 33.1684 38.1854 35.0607 36.9249 35.6914C36.3605 35.9738 37.9992 37.1569 37.5847 39.6456C36.9544 43.4301 31.2821 42.7993 27.502 42.1695C23.4006 41.4861 23.3002 47.636 23.7204 51Z" stroke="#0A0A0A" fill="#0A0A0A" stroke-width="2" stroke-linecap="round" stroke-linejoin="round"/>
<path d="M12 18.3075H18.2928M18.2928 18.3075H18.3026M18.2928 18.3075L18.2977 18.3125M18.2928 18.3075L13.2507 13.2615M18.3026 18.3075H24.6052M18.3026 18.3075V12M18.3026 18.3075V18.3174M18.3026 18.3075L23.3447 13.2615M18.3026 18.3075L18.2977 18.3125M18.3026 18.3174V24.6151M18.3026 18.3174L23.3349 23.3536M18.3026 18.3174L18.2977 18.3125M18.2977 18.3125L13.2605 23.3536" stroke="#11E59E" stroke-width="2" stroke-linecap="round" stroke-linejoin="round"/>
</svg>